<svg xmlns="http://www.w3.org/2000/svg" viewBox="42 16 404 196" role="img" aria-label="Breathe with Diana"><defs><filter id="rblur2" x="-30%" y="-30%" width="160%" height="160%"><feGaussianBlur stdDeviation="1.05"/></filter></defs><g filter="url(#rblur2)"><path d="M209.0 171.6 L209.8 172.7 L210.8 173.7 L212.1 174.7 L213.7 175.6 L215.5 176.3 L217.4 177.0 L219.3 177.7 L221.3 178.2 L223.3 178.8 L225.2 179.4 L227.1 180.0 L228.9 180.6 L230.7 181.3 L232.6 182.0 L234.5 182.6 L236.6 183.2 L238.7 183.7 L241.0 184.0 L243.3 184.2 L245.6 184.3 L248.0 184.2 L250.3 184.0 L252.6 183.7 L254.8 183.4 L257.0 183.1 L259.1 182.9 L261.3 182.6 L263.5 182.5 L265.8 182.3 L268.1 182.1 L270.4 181.9 L272.6 181.5 L274.8 181.1 L276.9 180.5 L278.7 179.8 L280.4 179.0 L281.9 178.1 L283.2 177.1 L284.4 176.1 L285.6 175.1 L286.7 174.2 L287.9 173.2 L289.1 172.3 L290.4 171.4 L291.8 170.5 L293.2 169.5" fill="none" stroke="#5B4636" stroke-width="0.90" opacity="0.240" stroke-linecap="round" stroke-linejoin="round"/><path d="M184.0 181.0 L186.7 182.5 L189.4 183.8 L192.1 185.2 L194.7 186.6 L197.3 188.0 L199.9 189.4 L202.4 190.9 L205.1 192.3 L208.0 193.7 L211.0 195.0 L214.3 196.1 L217.8 197.0 L221.6 197.7 L225.4 198.2 L229.3 198.5 L233.3 198.6 L237.2 198.7 L241.1 198.7 L244.9 198.7 L248.7 198.8 L252.5 198.9 L256.3 199.0 L260.2 199.1 L264.2 199.1 L268.1 199.1 L272.1 198.8 L275.9 198.4 L279.7 197.7 L283.2 196.8 L286.6 195.8 L289.7 194.6 L292.7 193.3 L295.5 191.9 L298.3 190.6 L301.0 189.2 L303.8 187.9 L306.6 186.7 L309.5 185.4 L312.4 184.1 L315.2 182.7 L317.9 181.2 L320.2 179.6 L322.2 177.9 L323.8 176.1 L324.9 174.2 L325.7 172.2 L326.1 170.2" fill="none" stroke="#5B4636" stroke-width="0.86" opacity="0.234" stroke-linecap="round" stroke-linejoin="round"/><path d="M173.9 169.1 L174.3 171.1 L175.1 173.0 L176.3 174.9 L178.0 176.7 L180.0 178.4 L182.3 180.0 L184.9 181.5 L187.6 182.9 L190.3 184.3 L192.9 185.6 L195.5 187.0 L198.1 188.4 L200.6 189.8 L203.2 191.3 L205.9 192.7 L208.8 194.0 L211.9 195.3 L215.2 196.3 L218.8 197.2 L222.5 197.8 L226.3 198.3 L230.3 198.5 L234.2 198.7 L238.1 198.7 L241.9 198.7 L245.7 198.7 L249.5 198.8 L253.3 198.9 L257.1 199.0 L261.0 199.1 L264.9 199.1 L268.8 199.0 L272.7 198.8 L276.6 198.3 L280.2 197.6 L283.8 196.7 L287.1 195.6 L290.2 194.4 L293.1 193.1 L295.9 191.7 L298.6 190.4 L301.3 189.1 L304.1 187.8 L306.9 186.5 L309.8 185.3 L312.7 183.9 L315.4 182.6 L318.0 181.1 L320.4 179.5 L322.3 177.8 L323.9 176.0 L325.0 174.1 L325.7 172.1 L326.1 170.2 L326.3 168.2" fill="none" stroke="#5B4636" stroke-width="0.86" opacity="0.326" stroke-linecap="round" stroke-linejoin="round"/><path d="M157.7 165.3 L159.4 167.5 L160.8 169.8 L161.6 172.1 L162.1 174.5 L162.6 176.9 L163.4 179.4 L165.0 181.7 L167.4 183.8 L170.7 185.7 L174.4 187.3 L178.2 188.8 L181.8 190.4 L185.1 192.1 L188.0 193.9 L190.8 195.9 L193.7 197.9 L197.1 199.7 L201.1 201.1 L205.6 202.1 L210.4 202.8 L215.3 203.2 L220.0 203.5 L224.6 204.1 L229.0 204.9 L233.4 205.8 L237.9 206.9 L242.5 207.7 L247.4 208.2 L252.2 208.2 L257.1 207.7 L261.8 207.0 L266.3 206.1 L270.8 205.3 L275.4 204.7 L280.1 204.4 L284.9 204.2 L289.8 203.9 L294.6 203.3 L299.1 202.3 L303.1 200.9 L306.6 199.1 L309.7 197.2 L312.8 195.3 L316.0 193.6 L319.5 192.1 L323.4 190.7 L327.4 189.2 L331.3 187.7 L334.5 185.8 L337.0 183.7 L338.6 181.4 L339.6 179.0 L340.3 176.5 L341.2 174.2 L342.5 171.9 L344.2 169.8 L346.3 167.5" fill="none" stroke="#5B4636" stroke-width="0.82" opacity="0.275" stroke-linecap="round" stroke-linejoin="round"/><path d="M162.4 176.1 L163.1 178.6 L164.4 181.0 L166.6 183.2 L169.7 185.2 L173.3 186.9 L177.2 188.4 L180.9 190.0 L184.3 191.6 L187.3 193.5 L190.1 195.5 L193.1 197.5 L196.4 199.4 L200.3 200.9 L204.7 202.0 L209.5 202.7 L214.5 203.1 L219.3 203.5 L224.0 204.0 L228.4 204.7 L232.9 205.7 L237.4 206.8 L242.0 207.7 L246.9 208.2 L251.8 208.2 L256.7 207.8 L261.5 207.0 L266.1 206.1 L270.6 205.3 L275.2 204.7 L279.9 204.4 L284.9 204.2 L289.8 203.9 L294.7 203.3 L299.2 202.3 L303.2 200.8 L306.7 199.0 L309.8 197.1 L312.9 195.2 L316.2 193.5 L319.8 192.0 L323.8 190.5 L327.8 189.1 L331.6 187.5" fill="none" stroke="#5B4636" stroke-width="0.82" opacity="0.276" stroke-linecap="round" stroke-linejoin="round"/></g><g transform="translate(-8,7)"><g fill="#5B4636"><path d="M86 41 C84 31 74 27 65 31 C56 35 52 45 55 55 C56 49 61 45 67 44 C71 38 79 37 86 41 Z"/><path d="M56 51 C48 54 45 62 49 69 C52 63 57 61 62 62 C58 57 56 53 56 51 Z"/><circle cx="80" cy="46" r="12.5"/><path d="M71 58 C67 58 66 62 66 66 L54 150 C54 150 65 158 80 158 C95 158 99 151 99 148 L89 66 C89 62 87 58 83 58 Z"/><path d="M71 156 L69 190 C69 193 73 193 74 190 L78 158 Z"/><path d="M85 158 L88 190 C88 193 92 193 93 190 L91 156 Z"/><path d="M65 189 C63 192 64 195 68 195 L76 195 C77 192 75 190 73 189 Z"/><path d="M86 189 C85 192 86 195 90 195 L98 195 C98 192 96 190 94 189 Z"/></g><path d="M69 67 C64 79 64 91 67 101" fill="none" stroke="#5B4636" stroke-width="6.5" stroke-linecap="round"/><path d="M85 67 C90 66 95 65 98 64" fill="none" stroke="#5B4636" stroke-width="7.5" stroke-linecap="round"/><path d="M103 51 C102 56 100 60 98 64" fill="none" stroke="#5B4636" stroke-width="1.5" stroke-linecap="round"/><g stroke="#5B4636" stroke-width="0.75" stroke-linecap="round"><line x1="103" y1="45" x2="107.5" y2="39.6"/><circle cx="107.5" cy="39.6" r="0.7" fill="#5B4636"/><line x1="103" y1="45" x2="105.4" y2="38.4"/><circle cx="105.4" cy="38.4" r="0.7" fill="#5B4636"/><line x1="103" y1="45" x2="103.0" y2="38.0"/><circle cx="103.0" cy="38.0" r="0.7" fill="#5B4636"/><line x1="103" y1="45" x2="100.6" y2="38.4"/><circle cx="100.6" cy="38.4" r="0.7" fill="#5B4636"/><line x1="103" y1="45" x2="98.5" y2="39.6"/><circle cx="98.5" cy="39.6" r="0.7" fill="#5B4636"/><line x1="103" y1="45" x2="96.9" y2="41.5"/><circle cx="96.9" cy="41.5" r="0.7" fill="#5B4636"/><line x1="103" y1="45" x2="96.1" y2="43.8"/><circle cx="96.1" cy="43.8" r="0.7" fill="#5B4636"/><line x1="103" y1="45" x2="96.1" y2="46.2"/><circle cx="96.1" cy="46.2" r="0.7" fill="#5B4636"/><line x1="103" y1="45" x2="96.9" y2="48.5"/><circle cx="96.9" cy="48.5" r="0.7" fill="#5B4636"/><line x1="103" y1="45" x2="98.5" y2="50.4"/><circle cx="98.5" cy="50.4" r="0.7" fill="#5B4636"/><line x1="103" y1="45" x2="100.6" y2="51.6"/><circle cx="100.6" cy="51.6" r="0.7" fill="#5B4636"/><line x1="103" y1="45" x2="103.0" y2="52.0"/><circle cx="103.0" cy="52.0" r="0.7" fill="#5B4636"/><line x1="103" y1="45" x2="105.4" y2="51.6"/><circle cx="105.4" cy="51.6" r="0.7" fill="#5B4636"/><line x1="103" y1="45" x2="107.5" y2="50.4"/><circle cx="107.5" cy="50.4" r="0.7" fill="#5B4636"/></g><circle cx="103" cy="45" r="1.5" fill="#5B4636"/></g><text x="146" y="124" font-family="Cormorant Garamond, Georgia, serif" font-weight="500" font-size="33" fill="#5B4636">Breathe with Diana</text><g><g transform="translate(105.9,48.9) rotate(-25)" stroke="#5B4636" stroke-width="0.9" stroke-linecap="round"><circle r="1.38" fill="#5B4636"/><line x2="-3.9" y2="-3.9"/><line y2="-5.3"/><line x2="3.9" y2="-3.9"/></g><g transform="translate(103.8,50.0) rotate(28)" stroke="#5B4636" stroke-width="0.9" stroke-linecap="round"><circle r="1.35" fill="#5B4636"/><line x2="-3.8" y2="-3.8"/><line y2="-5.1"/><line x2="3.8" y2="-3.8"/></g><g transform="translate(107.8,51.6) rotate(-8)" stroke="#5B4636" stroke-width="0.9" stroke-linecap="round"><circle r="1.48" fill="#5B4636"/><line x2="-4.2" y2="-4.2"/><line y2="-5.7"/><line x2="4.2" y2="-4.2"/></g><g transform="translate(111.6,54.0) rotate(15)" stroke="#5B4636" stroke-width="0.9" stroke-linecap="round"><circle r="1.42" fill="#5B4636"/><line x2="-4.1" y2="-4.1"/><line y2="-5.4"/><line x2="4.1" y2="-4.1"/></g><g transform="translate(114.4,48.8) rotate(26)" stroke="#5B4636" stroke-width="0.9" stroke-linecap="round"><circle r="1.45" fill="#5B4636"/><line x2="-4.1" y2="-4.1"/><line y2="-5.5"/><line x2="4.1" y2="-4.1"/></g><g transform="translate(123.6,47.9) rotate(17)" stroke="#5B4636" stroke-width="0.9" stroke-linecap="round"><circle r="1.35" fill="#5B4636"/><line x2="-3.9" y2="-3.9"/><line y2="-5.1"/><line x2="3.9" y2="-3.9"/></g><g transform="translate(125.8,52.9) rotate(-9)" stroke="#5B4636" stroke-width="0.9" stroke-linecap="round"><circle r="1.36" fill="#5B4636"/><line x2="-3.9" y2="-3.9"/><line y2="-5.2"/><line x2="3.9" y2="-3.9"/></g><g transform="translate(135.3,35.5) rotate(2)" stroke="#5B4636" stroke-width="0.9" stroke-linecap="round"><circle r="1.33" fill="#5B4636"/><line x2="-3.8" y2="-3.8"/><line y2="-5.1"/><line x2="3.8" y2="-3.8"/></g><g transform="translate(147.3,35.4) rotate(-6)" stroke="#5B4636" stroke-width="0.9" stroke-linecap="round"><circle r="1.36" fill="#5B4636"/><line x2="-3.9" y2="-3.9"/><line y2="-5.2"/><line x2="3.9" y2="-3.9"/></g><g transform="translate(154.5,46.4) rotate(7)" stroke="#D4A24C" stroke-width="0.9" stroke-linecap="round"><circle r="1.17" fill="#D4A24C"/><line x2="-3.3" y2="-3.3"/><line y2="-4.5"/><line x2="3.3" y2="-3.3"/></g><g transform="translate(166.0,45.7) rotate(27)" stroke="#5B4636" stroke-width="0.9" stroke-linecap="round"><circle r="1.15" fill="#5B4636"/><line x2="-3.3" y2="-3.3"/><line y2="-4.4"/><line x2="3.3" y2="-3.3"/></g><g transform="translate(185.1,57.7) rotate(-19)" stroke="#5B4636" stroke-width="0.9" stroke-linecap="round"><circle r="1.14" fill="#5B4636"/><line x2="-3.3" y2="-3.3"/><line y2="-4.4"/><line x2="3.3" y2="-3.3"/></g><g transform="translate(198.1,41.0) rotate(16)" stroke="#5B4636" stroke-width="0.9" stroke-linecap="round"><circle r="1.03" fill="#5B4636"/><line x2="-3.0" y2="-3.0"/><line y2="-3.9"/><line x2="3.0" y2="-3.0"/></g><g transform="translate(217.8,18.1) rotate(24)" stroke="#5B4636" stroke-width="0.9" stroke-linecap="round"><circle r="1.07" fill="#5B4636"/><line x2="-3.0" y2="-3.0"/><line y2="-4.1"/><line x2="3.0" y2="-3.0"/></g><g transform="translate(232.5,40.4) rotate(-13)" stroke="#5B4636" stroke-width="0.9" stroke-linecap="round"><circle r="1.11" fill="#5B4636"/><line x2="-3.2" y2="-3.2"/><line y2="-4.2"/><line x2="3.2" y2="-3.2"/></g><g transform="translate(252.6,29.0) rotate(12)" stroke="#5B4636" stroke-width="0.9" stroke-linecap="round"><circle r="0.94" fill="#5B4636"/><line x2="-2.7" y2="-2.7"/><line y2="-3.6"/><line x2="2.7" y2="-2.7"/></g><g transform="translate(262.9,19.8) rotate(17)" stroke="#5B4636" stroke-width="0.9" stroke-linecap="round"><circle r="0.88" fill="#5B4636"/><line x2="-2.5" y2="-2.5"/><line y2="-3.3"/><line x2="2.5" y2="-2.5"/></g><g transform="translate(296.4,7.0) rotate(8)" stroke="#5B4636" stroke-width="0.9" stroke-linecap="round"><circle r="0.80" fill="#5B4636"/><line x2="-2.3" y2="-2.3"/><line y2="-3.0"/><line x2="2.3" y2="-2.3"/></g><g transform="translate(321.7,36.7) rotate(13)" stroke="#5B4636" stroke-width="0.9" stroke-linecap="round"><circle r="0.68" fill="#5B4636"/><line x2="-1.9" y2="-1.9"/><line y2="-2.6"/><line x2="1.9" y2="-1.9"/></g><g transform="translate(343.4,14.6) rotate(16)" stroke="#5B4636" stroke-width="0.9" stroke-linecap="round"><circle r="0.74" fill="#5B4636"/><line x2="-2.1" y2="-2.1"/><line y2="-2.8"/><line x2="2.1" y2="-2.1"/></g></g></svg>
